# File created by Blade
# Date/Time:  Wed Jan 21 18:34:34 2015
#---------------------------------------------------------
:version 1.10
:name HOM
:units
  mass 1.0
  length 1.000000
  angle deg
:documentation
     Acclaim Skeleton File
:root
   axis xyz
   order TX TY TZ RX RY RZ
   position 0.000000 0.000000 0.000000
   orientation 0 0 0
:bonedata
   begin
      id 1
      name RightUpLeg_dum
      direction -1.000000 0.000000 0.000000
      length 3.693983
      axis 0.0 0.0 0.0 xyz
   end
   begin
      id 2
      name LeftUpLeg_dum
      direction 1.000000 0.000000 0.000000
      length 3.693983
      axis 0.0 0.0 0.0 xyz
   end
   begin
      id 3
      name Spine_dum
      direction 0.000000 1.000000 0.000000
      length 2.392956
      axis 0.0 0.0 0.0 xyz
   end
   begin
      id 4
      name RightUpLeg
      direction 0.000000 -1.000000 0.000000
      length 15.795667
      axis 0.0 0.0 0.0 xyz
      dof rx ry rz
   end
   begin
      id 5
      name RightLeg
      direction 0.000000 -1.000000 0.000000
      length 14.766989
      axis 0.0 0.0 0.0 xyz
      dof rx ry rz
   end
   begin
      id 6
      name RightFoot
      direction 0.000000 -0.258819 0.965926
      length 4.962790
      axis 15.0 0.0 0.0 xyz
      dof rx ry rz
   end
   begin
      id 7
      name RightToeBase
      direction 0.000000 0.000000 1.000000
      length 2.952750
      axis 0.0 0.0 0.0 xyz
      dof rx ry rz
   end
   begin
      id 8
      name LeftUpLeg
      direction 0.000000 -1.000000 0.000000
      length 15.795667
      axis 0.0 0.0 0.0 xyz
      dof rx ry rz
   end
   begin
      id 9
      name LeftLeg
      direction 0.000000 -1.000000 0.000000
      length 14.766989
      axis 0.0 0.0 0.0 xyz
      dof rx ry rz
   end
   begin
      id 10
      name LeftFoot
      direction 0.000000 -0.258819 0.965926
      length 4.962790
      axis 15.0 0.0 0.0 xyz
      dof rx ry rz
   end
   begin
      id 11
      name LeftToeBase
      direction 0.000000 0.000000 1.000000
      length 2.952750
      axis 0.0 0.0 0.0 xyz
      dof rx ry rz
   end
   begin
      id 12
      name Spine
      direction 0.000000 1.000000 0.000000
      length 0.000000
      axis 0.0 0.0 0.0 xyz
      dof rx ry rz
   end
   begin
      id 13
      name Spine_dum1
      direction 0.000000 1.000000 0.000000
      length 13.207411
      axis 0.0 0.0 0.0 xyz
   end
   begin
      id 14
      name Spine_dum2
      direction 0.000000 1.000000 0.000000
      length 13.207411
      axis 0.0 0.0 0.0 xyz
   end
   begin
      id 15
      name Spine_dum3
      direction 0.000000 1.000000 0.000000
      length 19.250100
      axis 0.0 0.0 0.0 xyz
   end
   begin
      id 16
      name RightShoulder
      direction -1.000000 0.000000 0.000000
      length 8.140465
      axis 0.0 0.0 90.0 xyz
      dof rx ry rz
   end
   begin
      id 17
      name RightArm
      direction -1.000000 0.000000 0.000000
      length 10.649840
      axis 0.0 0.0 90.0 xyz
      dof rx ry rz
   end
   begin
      id 18
      name RightForeArm
      direction -1.000000 0.000000 0.000000
      length 8.304624
      axis 0.0 0.0 90.0 xyz
      dof ry rz rx
   end
   begin
      id 19
      name RightHand
      direction -1.000000 0.000000 0.000000
      length 0.000000
      axis 0.0 0.0 90.0 xyz
      dof rx ry rz
   end
   begin
      id 20
      name RightHand_dum1
      direction -1.000000 0.000000 0.000000
      length 3.937000
      axis 0.0 0.0 90.0 xyz
   end
   begin
      id 21
      name RightHand_dum2
      direction 0.000000 0.000000 0.000000
      length 0.000000
      axis 0.0 0.0 90.0 xyz
   end
   begin
      id 22
      name RightHandThumb1
      direction 0.000000 0.000000 1.000000
      length 3.937000
      axis 0.0 0.0 90.0 xyz
      dof rx rz ry
   end
   begin
      id 23
      name LeftShoulder
      direction 1.000000 0.000000 0.000000
      length 8.140465
      axis 0.0 0.0 -90.0 xyz
      dof rx ry rz
   end
   begin
      id 24
      name LeftArm
      direction 1.000000 0.000000 0.000000
      length 10.649840
      axis 0.0 0.0 -90.0 xyz
      dof rx ry rz
   end
   begin
      id 25
      name LeftForeArm
      direction 1.000000 0.000000 0.000000
      length 8.304624
      axis 0.0 0.0 -90.0 xyz
      dof ry rz rx
   end
   begin
      id 26
      name LeftHand
      direction 1.000000 0.000000 0.000000
      length 0.000000
      axis 0.0 0.0 -90.0 xyz
      dof rx ry rz
   end
   begin
      id 27
      name LeftHand_dum1
      direction 1.000000 0.000000 0.000000
      length 3.937000
      axis 0.0 0.0 -90.0 xyz
   end
   begin
      id 28
      name LeftHand_dum2
      direction 0.000000 0.000000 0.000000
      length 0.000000
      axis 0.0 0.0 -90.0 xyz
   end
   begin
      id 29
      name LeftHandThumb1
      direction 0.000000 0.000000 1.000000
      length 3.937000
      axis 0.0 0.0 -90.0 xyz
      dof rx rz ry
   end
   begin
      id 30
      name Head
      direction 0.000000 1.000000 0.000000
      length 4.527550
      axis 0.0 0.0 0.0 xyz
      dof rx ry rz
   end
:hierarchy
   begin
      root RightUpLeg_dum LeftUpLeg_dum Spine_dum
      RightUpLeg_dum RightUpLeg
      LeftUpLeg_dum LeftUpLeg
      Spine_dum Spine
      RightUpLeg RightLeg
      RightLeg RightFoot
      RightFoot RightToeBase
      LeftUpLeg LeftLeg
      LeftLeg LeftFoot
      LeftFoot LeftToeBase
      Spine Spine_dum1 Spine_dum2 Spine_dum3
      Spine_dum1 RightShoulder
      Spine_dum2 LeftShoulder
      Spine_dum3 Head
      RightShoulder RightArm
      RightArm RightForeArm
      RightForeArm RightHand
      RightHand RightHand_dum1 RightHand_dum2
      RightHand_dum2 RightHandThumb1
      LeftShoulder LeftArm
      LeftArm LeftForeArm
      LeftForeArm LeftHand
      LeftHand LeftHand_dum1 LeftHand_dum2
      LeftHand_dum2 LeftHandThumb1
   end

# File created by Blade
# Date/Time:  Wed Jan 21 18:34:41 2015
# Frame Rate: 120.000 fps
#------------------------------------------------------
:FULLY-SPECIFIED
:DEGREES
152
root 1.276564 32.737440 -5.488757 45.784524 -9.971974 0.102723
RightUpLeg -38.341347 -4.800714 1.968220
RightLeg -1.485280 -0.000000 0.000000
RightFoot -9.678861 1.878019 17.492339
RightToeBase 15.826886 -0.000000 -0.000000
LeftUpLeg -36.780828 13.917967 -6.903833
LeftLeg 1.323022 -0.000000 -0.000000
LeftFoot -9.439736 -2.070683 -6.376424
LeftToeBase 3.896112 -0.000000 -0.000000
Spine -51.808678 -8.554411 9.455416
RightShoulder -22.505805 10.607143 -47.101650
RightArm -2.456779 -10.328453 40.161126
RightForeArm 6.466524 -0.000000 -6.159894
RightHand 11.212003 -0.000000 5.871977
RightHandThumb1 -24.326973 -0.000000 -32.862282
LeftShoulder -7.695821 -0.520171 38.423452
LeftArm 31.627014 -10.180271 -38.552417
LeftForeArm 19.518267 -0.000000 -3.133694
LeftHand -24.299654 -0.000000 -4.311613
LeftHandThumb1 -26.253704 0.000000 33.147579
Head 2.800358 -4.285635 7.130286
153
root 1.283057 32.732949 -5.504383 45.871340 -10.441651 -0.005779
RightUpLeg -38.463365 -4.613206 1.881297
RightLeg -1.551290 -0.000000 0.000000
RightFoot -9.509197 2.124090 17.550446
RightToeBase 15.945649 -0.000000 -0.000000
LeftUpLeg -36.789662 14.000367 -6.828313
LeftLeg 1.327386 -0.000000 -0.000000
LeftFoot -9.591408 -2.032190 -6.322268
LeftToeBase 3.953734 -0.000000 -0.000000
Spine -51.840234 -8.662336 9.786443
RightShoulder -22.546361 10.589776 -47.089394
RightArm -2.463657 -10.482193 40.096018
RightForeArm 6.557962 -0.000000 -6.126582
RightHand 11.210580 -0.000000 5.961783
RightHandThumb1 -24.326973 -0.000000 -32.862282
LeftShoulder -7.694278 -0.850676 38.430985
LeftArm 31.834027 -9.945017 -38.508866
LeftForeArm 19.715260 -0.000000 -3.225457
LeftHand -24.185303 0.000000 -4.590746
LeftHandThumb1 -26.253704 0.000000 33.147579
Head 2.789393 -3.816841 7.199135
154
root 1.292606 32.726941 -5.516183 45.943020 -10.914891 -0.119950
RightUpLeg -38.559862 -4.475658 1.831139
RightLeg -1.639734 -0.000000 0.000000
RightFoot -9.235798 2.352398 17.269187
RightToeBase 15.558731 -0.000000 -0.000000
LeftUpLeg -36.755854 14.054510 -6.745876
LeftLeg 1.308014 -0.000000 -0.000000
LeftFoot -9.725874 -1.873484 -6.283875
LeftToeBase 3.869309 -0.000000 -0.000000
Spine -51.842857 -8.738066 10.138110
RightShoulder -22.665911 10.591948 -47.143560
RightArm -2.361125 -10.682103 40.057045
RightForeArm 6.635907 -0.000000 -6.275178
RightHand 11.202852 -0.000000 5.866212
RightHandThumb1 -24.326973 -0.000000 -32.862282
LeftShoulder -7.622536 -1.026414 38.381409
LeftArm 31.951682 -9.872329 -38.448950
LeftForeArm 19.701416 -0.000000 -3.161412
LeftHand -24.020930 0.000000 -4.510360
LeftHandThumb1 -26.253704 0.000000 33.147579
Head 2.742728 -3.385569 7.144308
155
root 1.300935 32.720676 -5.531140 46.055217 -11.439075 -0.233899
RightUpLeg -38.729788 -4.287287 1.733885
RightLeg -1.659554 -0.000000 0.000000
RightFoot -9.163627 2.723396 17.605988
RightToeBase 16.015866 -0.000000 -0.000000
LeftUpLeg -36.762679 14.142341 -6.731758
LeftLeg 1.267184 -0.000000 -0.000000
LeftFoot -9.860386 -1.709701 -6.314421
LeftToeBase 3.864762 -0.000000 -0.000000
Spine -51.883777 -8.809404 10.468636
RightShoulder -22.710106 10.610060 -47.205498
RightArm -2.435295 -10.655362 40.053843
RightForeArm 6.460756 -0.000000 -6.220757
RightHand 11.280941 0.000000 5.498574
RightHandThumb1 -24.326973 -0.000000 -32.862282
LeftShoulder -7.531075 -1.072302 38.384784
LeftArm 32.119164 -9.723187 -38.354113
LeftForeArm 19.553065 -0.000000 -3.151829
LeftHand -23.994456 -0.000000 -4.380273
LeftHandThumb1 -26.253704 0.000000 33.147579
Head 2.690074 -2.935751 7.132092
156
root 1.310520 32.714587 -5.543804 46.132221 -11.959910 -0.342001
RightUpLeg -38.866300 -4.154863 1.682374
RightLeg -1.686351 -0.000000 0.000000
RightFoot -9.012746 3.044699 17.581225
RightToeBase 16.058005 -0.000000 -0.000000
LeftUpLeg -36.716104 14.222470 -6.719285
LeftLeg 1.201659 -0.000000 -0.000000
LeftFoot -9.998140 -1.530037 -6.390557
LeftToeBase 3.917272 -0.000000 -0.000000
Spine -51.895800 -8.900859 10.802098
RightShoulder -22.727743 10.611319 -47.224394
RightArm -2.501359 -10.549515 39.995998
RightForeArm 6.340963 -0.000000 -6.164020
RightHand 11.412860 -0.000000 5.342178
RightHandThumb1 -24.326973 -0.000000 -32.862282
LeftShoulder -7.446255 -1.137793 38.383835
LeftArm 32.187836 -9.580695 -38.252994
LeftForeArm 19.525818 0.000000 -2.969979
LeftHand -24.088196 -0.000000 -4.563129
LeftHandThumb1 -26.253704 0.000000 33.147579
Head 2.660874 -2.460521 7.143600
157
root 1.318180 32.708803 -5.553048 46.184034 -12.451729 -0.464870
RightUpLeg -38.950500 -4.004254 1.635642
RightLeg -1.738367 -0.000000 0.000000
RightFoot -8.825362 3.327200 17.549958
RightToeBase 16.019070 -0.000000 -0.000000
LeftUpLeg -36.663077 14.388462 -6.749726
LeftLeg 1.153681 -0.000000 -0.000000
LeftFoot -10.136116 -1.417742 -6.437677
LeftToeBase 3.985169 -0.000000 -0.000000
Spine -51.898409 -9.008221 11.163386
RightShoulder -22.732223 10.582831 -47.243898
RightArm -2.581594 -10.575474 39.970314
RightForeArm 6.397089 -0.000000 -6.067543
RightHand 11.397850 -0.000000 5.415625
RightHandThumb1 -24.326973 -0.000000 -32.862282
LeftShoulder -7.367365 -1.144073 38.351484
LeftArm 32.479020 -9.730221 -38.320610
LeftForeArm 19.906502 -0.000000 -3.107388
LeftHand -24.008564 -0.000000 -4.497943
LeftHandThumb1 -26.253704 0.000000 33.147579
Head 2.665437 -1.916852 7.123368
158
root 1.330492 32.703986 -5.568944 46.302435 -12.992314 -0.591415
RightUpLeg -39.142604 -3.765133 1.503641
RightLeg -1.734358 -0.000000 0.000000
RightFoot -8.668455 3.580642 17.587023
RightToeBase 16.071939 -0.000000 -0.000000
LeftUpLeg -36.687064 14.577614 -6.857277
LeftLeg 1.094776 -0.000000 -0.000000
LeftFoot -10.266055 -1.276558 -6.510839
LeftToeBase 4.072738 -0.000000 -0.000000
Spine -51.936086 -9.075334 11.504618
RightShoulder -22.758664 10.574967 -47.256134
RightArm -2.612099 -10.530554 39.936666
RightForeArm 6.341957 -0.000000 -6.049803
RightHand 11.406899 -0.000000 5.222733
RightHandThumb1 -24.326973 -0.000000 -32.862282
LeftShoulder -7.279051 -1.095969 38.317446
LeftArm 32.676763 -9.609326 -38.190124
LeftForeArm 19.686893 -0.000000 -3.031638
LeftHand -24.149088 -0.000000 -4.415749
LeftHandThumb1 -26.253704 0.000000 33.147579
Head 2.652347 -1.384708 7.135747
159
root 1.338301 32.699215 -5.579149 46.341293 -13.523223 -0.726618
RightUpLeg -39.227440 -3.527262 1.387268
RightLeg -1.753498 -0.000000 0.000000
RightFoot -8.527855 3.831795 17.696453
RightToeBase 16.219482 -0.000000 -0.000000
LeftUpLeg -36.596529 14.771131 -6.924156
LeftLeg 1.004612 -0.000000 -0.000000
LeftFoot -10.382290 -1.096236 -6.595652
LeftToeBase 4.098842 -0.000000 -0.000000
Spine -51.902029 -9.131454 11.808113
RightShoulder -22.853587 10.502987 -47.278091
RightArm -2.588754 -10.560848 39.901007
RightForeArm 6.360743 -0.000000 -6.072500
RightHand 11.622408 -0.000000 5.251828
RightHandThumb1 -24.326973 -0.000000 -32.862282
LeftShoulder -7.068841 -0.491508 38.181877
LeftArm 33.146579 -10.119817 -38.148800
LeftForeArm 19.626760 -0.000000 -2.933519
LeftHand -24.264395 -0.000000 -4.421520
LeftHandThumb1 -26.253704 0.000000 33.147579
Head 2.639712 -0.905318 7.125900
160
root 1.352748 32.695871 -5.592052 46.450620 -14.051617 -0.822086
RightUpLeg -39.405481 -3.293158 1.224029
RightLeg -1.761319 -0.000000 0.000000
RightFoot -8.373962 4.021027 17.671804
RightToeBase 16.225969 -0.000000 -0.000000
LeftUpLeg -36.604532 14.934181 -7.072779
LeftLeg 0.927355 -0.000000 -0.000000
LeftFoot -10.474813 -0.895506 -6.689590
LeftToeBase 4.171706 -0.000000 -0.000000
Spine -51.957372 -9.248125 12.161637
RightShoulder -22.854292 10.518993 -47.291811
RightArm -2.656418 -10.552200 39.869389
RightForeArm 6.455324 -0.000000 -5.995026
RightHand 11.543344 -0.000000 5.219599
RightHandThumb1 -24.326973 -0.000000 -32.862282
LeftShoulder -7.070967 -0.662367 38.180584
LeftArm 33.318421 -9.857693 -38.075634
LeftForeArm 19.518302 -0.000000 -2.941510
LeftHand -24.319523 0.000000 -4.347302
LeftHandThumb1 -26.253704 0.000000 33.147579
Head 2.643404 -0.381863 7.135503
161
root 1.365905 32.692769 -5.605112 46.542333 -14.578957 -0.911006
RightUpLeg -39.574378 -3.038291 1.038277
RightLeg -1.754582 -0.000000 0.000000
RightFoot -8.259714 4.195390 17.704719
RightToeBase 16.318715 -0.000000 -0.000000
LeftUpLeg -36.600154 15.123396 -7.243068
LeftLeg 0.850181 -0.000000 -0.000000
LeftFoot -10.548836 -0.722461 -6.751422
LeftToeBase 4.179126 -0.000000 -0.000000
Spine -52.001438 -9.361903 12.484640
RightShoulder -22.892061 10.477478 -47.300784
RightArm -2.678695 -10.490339 39.840427
RightForeArm 6.388146 0.000000 -5.925888
RightHand 11.408252 -0.000000 5.024177
RightHandThumb1 -24.326973 -0.000000 -32.862282
LeftShoulder -7.027792 -0.916863 38.165253
LeftArm 33.411230 -9.562430 -37.963502
LeftForeArm 19.479454 -0.000000 -2.909266
LeftHand -24.307588 0.000000 -4.475774
LeftHandThumb1 -26.253704 0.000000 33.147579
Head 2.670264 0.127725 7.148766
162
root 1.386118 32.690840 -5.620665 46.635762 -15.133949 -0.977875
RightUpLeg -39.780475 -2.762944 0.784926
RightLeg -1.702835 -0.000000 0.000000
RightFoot -8.160424 4.330140 17.674668
RightToeBase 16.259273 -0.000000 -0.000000
LeftUpLeg -36.620734 15.346996 -7.506231
LeftLeg 0.772682 -0.000000 -0.000000
LeftFoot -10.613888 -0.547381 -6.799128
LeftToeBase 4.264157 -0.000000 -0.000000
Spine -52.033382 -9.462632 12.757591
RightShoulder -22.952661 10.449917 -47.307212
RightArm -2.692341 -10.553302 39.812883
RightForeArm 6.445953 -0.000000 -5.922087
RightHand 11.357184 -0.000000 4.960651
RightHandThumb1 -24.326973 -0.000000 -32.862282
LeftShoulder -6.949784 -1.151892 38.181912
LeftArm 33.557323 -9.513606 -38.041443
LeftForeArm 19.590909 -0.000000 -2.989707
LeftHand -24.195744 -0.000000 -4.507972
LeftHandThumb1 -26.253704 0.000000 33.147579
Head 2.692777 0.638192 7.190922
163
root 1.399222 32.690182 -5.633614 46.705645 -15.677449 -1.081889
RightUpLeg -39.948026 -2.455983 0.561701
RightLeg -1.641943 -0.000000 0.000000
RightFoot -8.041658 4.458318 17.692350
RightToeBase 16.275739 -0.000000 -0.000000
LeftUpLeg -36.604859 15.609710 -7.729854
LeftLeg 0.690490 -0.000000 -0.000000
LeftFoot -10.666360 -0.373994 -6.865476
LeftToeBase 4.256306 -0.000000 -0.000000
Spine -52.045075 -9.554261 13.067410
RightShoulder -23.039674 10.463928 -47.361417
RightArm -2.723430 -10.536559 39.806849
RightForeArm 6.356095 -0.000000 -5.914430
RightHand 11.599446 0.000000 4.847525
RightHandThumb1 -24.326973 -0.000000 -32.862282
LeftShoulder -6.854447 -1.394390 38.157569
LeftArm 33.626044 -9.348716 -38.008254
LeftForeArm 19.594913 -0.000000 -2.964408
LeftHand -24.057309 -0.000000 -4.520391
LeftHandThumb1 -26.253704 0.000000 33.147579
Head 2.719037 1.173076 7.168529
